<?xml version="1.0"?>
<svg xmlns="http://www.w3.org/2000/svg" viewBox="0 0 24 24" enable-background="new 0 0 24 24">
    <path style="text-indent:0;text-align:start;line-height:normal;text-transform:none;block-progression:tb;-inkscape-font-specification:Bitstream Vera Sans" d="M 9.90625 1 L 9.03125 4.78125 L 6.8125 14.34375 L 5.9375 11.6875 L 5.71875 11 L 5 11 L 2 11 L 2 13 L 4.28125 13 L 6.0625 18.3125 L 7.1875 21.6875 L 7.96875 18.21875 L 10.09375 9 L 11.03125 12.28125 L 11.25 13 L 12 13 L 14.28125 13 C 14.627293 13.596896 15.260396 14 16 14 C 17.104569 14 18 13.104569 18 12 C 18 10.895431 17.104569 10 16 10 C 15.260396 10 14.627293 10.403104 14.28125 11 L 12.75 11 L 10.96875 4.71875 L 9.90625 1 z M 16 6 L 16 8 C 18.27619 8 20 9.7238095 20 12 C 20 14.27619 18.27619 16 16 16 L 16 18 C 19.32381 18 22 15.32381 22 12 C 22 8.6761905 19.32381 6 16 6 z" overflow="visible" enable-background="accumulate" font-family="Bitstream Vera Sans"/>
</svg>
